# xmcd CD database file generated by Grip 3.3.1
# 
# Track frame offsets:
#       150
#       20056
#       37044
#       52935
#       75880
#       89833
#       99895
#       119374
#       142488
#       156505
#       176121
# 
# Disc length: 2942 seconds
# 
# Revision: 2
# Processed by: cddbd v1.5.2PL0 Copyright (c) Steve Scherf et al.
# Submitted via: Grip 3.3.1
# 
DISCID=960b7c0b
DTITLE=Grand Supreme Blood Court - Bow Down Before The Blood Court
DYEAR=2013
DGENRE=Death Metal
TTITLE0=All Rise!
TTITLE1=Bow Down Before The Blood Court
TTITLE2=There Shall Be No Aquittance
TTITLE3=Verdictum Sanguis
TTITLE4=Behead The Defence
TTITLE5=Grand Justice, Grand Pain
TTITLE6=Fed To The Boars
TTITLE7=Circus Of Mass Torment
TTITLE8=Public Castration
TTITLE9=Piled Up For The Scavengers
TTITLE10=And Thus The Billions Shall Burn
EXTD=
EXTT0=
EXTT1=
EXTT2=
EXTT3=
EXTT4=
EXTT5=
EXTT6=
EXTT7=
EXTT8=
EXTT9=
EXTT10=
PLAYORDER=
